<?xml version="1.0" encoding="utf-8"?>
<!-- Generator: Adobe Illustrator 23.0.5, SVG Export Plug-In . SVG Version: 6.00 Build 0)  -->
<svg version="1.1" id="publicdomainvectors.org" xmlns="http://www.w3.org/2000/svg" xmlns:xlink="http://www.w3.org/1999/xlink"
	 x="0px" y="0px" viewBox="0 0 495.88 413.76" style="enable-background:new 0 0 495.88 413.76;" xml:space="preserve">
<g>
	<path d="M495.88,57.77h-7.54v-8.39h-6.51v-9.9h-61.95v9.9h-11.03v8.39h-7.64V34.53h-93.06l-55.39,23.24h-47.57V47.39h-8.49v0.57
		H137v-0.57h-10.17v10.37h-7.54c4.04-5.06,7.78-10.34,9.85-14.7c2.44-0.23,5.09-0.62,7.86-1.1c0.38-0.07,0.75-0.13,1.13-0.2v5.06
		h57.43v-7.83H150.5c1.21-0.31,2.41-0.63,3.6-0.96v0.4h27.6v-0.57v-3.34h-16.16c8.06-2.72,14.41-5.47,16.37-7.25
		c4.99-4.53,4.41-17.7,4.12-21.62l-0.22-2.96l-2.97-0.17c-5.41-0.31-53.05-3.02-58.27-2.44C120.2,0.57,103.44,10.78,72,30.72
		c-2.85,1.81-5.4,3.42-7.51,4.75C49.6,44.84,48.92,55.03,48.42,62.48c-0.06,0.92-0.12,1.82-0.21,2.67
		c-0.37,3.47-0.79,8.04-1.29,13.32c-1.84,19.67-4.61,49.24-9.36,79.77c-5.17,3.95-20.34,16.01-22.08,22.98
		c-1.21,4.84-0.67,13.54-0.27,19.9c0.13,2.16,0.3,4.81,0.26,5.72c-0.16,0.34-0.52,0.99-0.82,1.52c-1.42,2.51-3.8,6.71-4.69,12.38
		c-1.25,7.93-9.13,109.19-9.84,124.08c-0.71,14.92,1.96,41.14,12.21,52.25c7.05,7.64,26.5,16.7,47.95,16.7
		c8.52,0,17.37-1.43,25.88-4.95c15.66-6.47,20.69-17.89,22.16-22.66c35.87-11.05,65.47-58.63,71.01-78.11
		c0.41,0.12,0.8,0.23,1.19,0.33c1.5,0.42,2.79,0.78,3.76,1.22c6.9,3.13,44.99,16.14,59.08,16.14h0.03
		c5.25-0.01,10.96-6.94,12.79-13.15c1.52-5.15,0.34-9.51-3.23-12.07h242.94V57.77z M490.22,119.81h-72.04V63.42h72.04V119.81z
		 M424.4,44h52.9v5.38h-52.9V44z M413.37,53.9h6.51h61.95h1.98v4.43h-70.43V53.9z M122.44,63.42h278.77v56.38h-16.59
		c20.8,16.82,34.13,42.52,34.13,71.28c0,50.53-41.11,91.65-91.65,91.65c-45.11,0-82.68-32.77-90.24-75.74
		c-0.91-5.17-1.41-10.48-1.41-15.91c0-7.15,0.85-14.11,2.41-20.8c4.71-20.2,16.1-37.85,31.72-50.48h-95.47
		c-16.79-9.67-32.1-17.86-35.35-18.09c-2.6-0.18-9.09,2.51-16.33,6.04V63.42z M249.85,309.92c-0.4,1.82-1.29,3.58-2.3,5.05
		c-6.13-1.52-19.99-7.02-22.89-10.81c-0.39-0.51-0.55-1.13-0.55-1.8c3.05-0.23,9.16-1.07,11.29-4.22c0.2-0.29,0.35-0.6,0.47-0.91
		c4.06,2.8,8.36,5.71,13.01,8.73C249.31,306.24,250.48,307,249.85,309.92 M234.87,296.54c-0.09,0.33-0.21,0.66-0.42,0.96
		c-1.54,2.28-6.07,3.39-10.22,3.71c0.68-2.91,3.63-6.44,5.47-8.31C231.38,294.1,233.09,295.3,234.87,296.54 M116.78,110.59
		c-3.88,2-7.75,4.08-11.16,5.96c1.42-9.53-0.14-20.15-1.35-28.42c-0.68-4.66-1.61-11.01-1-12.65c2.31-2.15,7.94-7.97,13.51-14.64
		V110.59z M179.4,11.49c-6,0.25-17.79,0.04-22.56-0.33c0.85-0.95,1.25-2.09,1.41-3.17c7.27,0.37,14.71,0.76,21.16,1.13
		C179.42,9.91,179.42,10.7,179.4,11.49 M157.13,7.94c-0.18,1.1-0.68,2.24-1.81,3.07c-0.14-0.02-0.27-0.04-0.36-0.07
		c-0.47-0.12-1.04-1.42-1.48-3.18C154.69,7.82,155.91,7.88,157.13,7.94 M109.24,378.63c0.1-1.08,0.19-2.17,0.25-3.25l0.18-4.8
		c0.02-0.8,0.07-1.59,0.08-2.39l-0.05-2.4l-0.1-4.79l-0.36-4.77l-0.19-2.38l-0.32-2.37c-0.23-1.58-0.39-3.16-0.67-4.72
		c-0.86-5.12-2.09-10.15-3.63-15.08c-0.78-3.72-1.74-7.63-2.67-11.19c2.25,2.35,4.38,4.89,6.41,7.54c2.32,3.09,4.52,6.3,6.61,9.59
		c2.07,3.31,4.1,6.65,5.82,10.17c-1.2-3.74-2.74-7.36-4.33-10.97c-1.61-3.6-3.34-7.15-5.25-10.64c-1.94-3.48-4.04-6.89-6.5-10.16
		c-1.66-2.17-3.46-4.31-5.72-6.21c-0.33-1.14-0.54-1.8-0.54-1.8l18.32-12.36c0.85,0.06,1.7,0.11,2.55,0.15
		c3.33,0.18,6.65,0.27,9.97,0.35c6.39,0.13,12.76,0.15,19.15,0.1c7.99,3.85,15.98,7.6,24.19,11.11
		C166.98,324.73,140.02,367.03,109.24,378.63 M243.36,318.95h-0.02c-12.37,0-49.33-12.39-56.28-15.54c-1.45-0.66-3.05-1.1-4.75-1.57
		c-1.4-0.39-2.85-0.79-4.35-1.35l-4.06-1.5c-9.34-3.07-14.65-4.44-23.9-8.03l-0.72-0.28l-0.54,0.05
		c-6.55,0.58-13.14,1.08-19.71,1.47c-3.29,0.19-6.58,0.36-9.85,0.44c-1.64,0.04-3.28,0.07-4.9,0.04c-0.81-0.01-1.62-0.02-2.41-0.09
		c-0.82-0.02-1.54-0.14-2.27-0.25l-0.27-0.04c-2.44-0.02-4.93-0.13-7.39-0.3c-2.47-0.17-4.93-0.43-7.38-0.77
		c-2.45-0.33-4.89-0.79-7.28-1.43c-2.38-0.65-4.77-1.42-6.85-2.81c1.97,1.56,4.33,2.53,6.67,3.38c2.37,0.84,4.79,1.5,7.24,2.03
		c2.45,0.54,4.92,1,7.4,1.37c0.43,0.06,0.86,0.12,1.28,0.18c-1.05,1.78-1.44,3.24-3.28,4.9c-0.15,0.14-0.29,0.24-0.43,0.37
		l-0.11,0.09c-0.04,0.04,0.03-0.02,0.04-0.02c0.02-0.02,0.18-0.04,0.1-0.01c-0.11,0.06-0.45,0.17-0.82,0.23
		c-0.74,0.14-1.61,0.21-2.48,0.26c-1.75,0.1-3.55,0.1-5.36,0.08c-7.25-0.13-14.56-0.64-21.85-1.25c7.12,1.73,14.25,3.36,21.54,4.63
		c1.3,0.22,2.61,0.41,3.94,0.58l-0.05,0.06l-0.88,0.96c-1.22,1.25-2.58,2.41-4.05,3.44c-2.95,2.08-6.23,3.81-9.7,5.13l-1.29,0.53
		l-1.32,0.45l-2.66,0.89c-1.79,0.51-3.61,1-5.43,1.45c-1.84,0.37-3.68,0.78-5.53,1.12l-5.6,0.84l5.67-0.28
		c1.89-0.15,3.77-0.38,5.67-0.56c1.88-0.28,3.76-0.58,5.64-0.92l2.8-0.63l1.4-0.33l1.38-0.41c1.25-0.34,2.49-0.75,3.72-1.2
		c9.41,1.52,15.32,10.82,18.61,18.84c0.96,4.63,1.63,9.3,1.99,14c0.13,1.54,0.15,3.08,0.23,4.62l0.1,2.31l-0.03,2.31l-0.06,4.61
		l-0.32,4.6l-0.16,2.29c-0.07,0.76-0.19,1.52-0.28,2.29l-0.59,4.56c-0.3,2-0.68,3.98-1.07,5.95l-0.01,0l-0.07,0.41
		c-0.16,0.85-0.33,1.7-0.48,2.54c-0.79,2.91-4.48,13.11-18.4,18.86c-27.2,11.24-58.77-1.97-66.25-10.08
		c-7.83-8.48-11.21-30.71-10.42-47.32c0.78-16.45,8.73-116.74,9.77-123.34c0.7-4.46,2.62-7.85,3.9-10.1
		c0.45-0.79,0.82-1.46,1.11-2.09c3.22-2.05,6.41-4.12,9.56-6.27c2.03-1.4,4.05-2.81,6.03-4.3c1.95-1.5,3.96-3.01,5.57-4.87
		c-1.99,1.43-4.22,2.4-6.43,3.41c-2.22,0.98-4.49,1.88-6.75,2.76c-2.49,0.96-4.99,1.88-7.51,2.78c-0.04-0.71-0.09-1.5-0.15-2.42
		c-0.35-5.58-0.87-14.01,0.08-17.83c0.87-3.46,11.41-13.09,20.67-20.03l1.11-0.83l0.21-1.36c4.91-31.22,7.74-61.51,9.62-81.55
		c0.49-5.26,0.92-9.81,1.28-13.24c0.1-0.93,0.17-1.91,0.23-2.92c0.45-6.65,0.95-14.19,12.91-21.72c2.12-1.33,4.68-2.96,7.53-4.77
		c13.55-8.59,45.28-28.71,49.68-29.62c0.35-0.04,0.99-0.06,1.89-0.06c4.08,0,13.36,0.37,23.91,0.87c0.52,2.36,1.49,5.04,3.29,5.49
		c1.37,0.34,8.94,0.64,15.16,0.72c1.42,0.02,2.7,0.03,3.86,0.03c2.5,0,4.41-0.04,5.88-0.11c-0.24,4.02-0.9,7.51-1.96,8.48
		c-3.16,2.87-33.05,13.08-50.74,14.21l-0.78,0.05l-10.69-7.03l8.27,9.79c-3.91,9.46-20.3,27.16-24.89,31.36
		c-0.21,0.2-0.41,0.41-0.59,0.63l-16.35-2.37l14.98,5.55c-0.65,3.33,0.05,8.12,1.01,14.67c1.54,10.5,3.45,23.58-0.36,33l-0.32,0.79
		l-48.6,33.08l45.33-25.01l-0.07,0.17l8.47-4.8c0.09-0.05,0.17-0.1,0.26-0.15l9.6-5.3l0-0.01c12.04-6.49,23.66-12.17,26.33-12.4
		c7.26,1.95,76.02,42.09,80.82,47.21c5.55,5.92,12.7,16.57,13.41,19c-0.08,3.03-1.7,27.81-3.37,41.7l-1.96-2.33
		c-0.39-0.45-0.72-0.85-1.28-1.45c-0.49-0.52-0.91-0.89-1.37-1.33c-3.49-3.19-6.92-5.98-10.42-8.84c-4.7-3.8-9.45-7.52-14.22-11.2
		c-3.6-4.82-7.35-9.62-8.49-10.34c-3.08-1.94-14.94-8.35-23.84-13.12c-2.53-1.68-5.11-3.32-7.79-4.88c-1-0.57-2.02-1.13-3.1-1.67
		c-1.13-0.51-2.13-1.08-3.87-1.42c-1.53-0.21-2.74-0.12-3.96-0.02c-0.45,0.04-0.88,0.1-1.32,0.16c0,0,0,0,0,0
		c0.6-1.42,1.04-2.85,1.37-4.3c0.33-1.45,0.56-2.92,0.62-4.39c0.03-1.47-0.09-3-0.73-4.29c0.28,1.41,0,2.79-0.38,4.11
		c-0.41,1.32-0.98,2.58-1.62,3.79c-0.64,1.21-1.38,2.36-2.19,3.39c-0.4,0.52-0.83,1-1.25,1.4c-0.2,0.19-0.42,0.35-0.58,0.45
		l0.02,0.07c-1.16,0.44-2.44,0.93-3.77,1.44c-2.3,0.56-4.57,1.16-6.83,1.79c-4.31,1.21-8.58,2.51-12.83,3.86
		c-17,5.4-33.7,11.52-50.42,17.59c17.05-5.05,34.1-10.15,51.3-14.5c4.3-1.08,8.61-2.12,12.92-3.05c4.31-0.92,8.65-1.78,12.91-2.27
		c1.06-0.12,2.12-0.21,3.13-0.24c1-0.03,2.02,0,2.69,0.15c0.44,0.1,1.44,0.6,2.29,1.08c0.89,0.51,1.78,1.08,2.68,1.66
		c3.58,2.38,7.12,5.02,10.6,7.71c6.96,5.4,13.79,11.04,20.54,16.76c6.74,5.73,13.42,11.56,19.93,17.49
		c3.23,2.96,6.52,5.99,9.42,8.98c0.33,0.35,0.71,0.75,0.97,1.05l0.89,1.08l2.04,2.54l4.08,5.2c1.9,2.45,3.78,4.9,5.64,7.37
		c-1.76,15.23-4.12,34.96-5.19,42.43c-1.47-0.32-3.65-0.86-6.78-1.76c-12.64-7.32-24.35-21.78-26.54-30.98
		c0.15-0.2,0.28-0.4,0.4-0.6c0.44-0.72,0.78-1.43,1.08-2.15c0.6-1.42,1.04-2.85,1.37-4.3c0.33-1.45,0.56-2.92,0.62-4.39
		c0.03-1.46-0.09-3-0.73-4.29c0.28,1.41,0,2.8-0.38,4.11c-0.41,1.32-0.98,2.58-1.62,3.78c-0.64,1.21-1.38,2.36-2.19,3.39
		c-0.02,0.02-0.04,0.04-0.05,0.06c-0.1-0.03-0.2-0.06-0.33-0.1c-19.35-4.58-27.81-15.2-35.21-18.44c0.23-0.45,0.44-0.89,0.63-1.33
		c0.6-1.42,1.04-2.85,1.37-4.3c0.33-1.45,0.56-2.92,0.62-4.39c0.03-1.47-0.09-3-0.73-4.29c0.28,1.41,0,2.79-0.38,4.11
		c-0.41,1.32-0.98,2.58-1.62,3.78c-0.64,1.21-1.38,2.36-2.19,3.4c-0.4,0.52-0.83,1-1.25,1.4c-0.2,0.19-0.42,0.35-0.58,0.46
		l0.08,0.31c-12.15,0-68.26,8.05-68.26,8.05L67,234.81c0,0,12.73,7.24,18.25,7.34c1.17,0.02,14.59,0.88,31.04,2.12
		c5.44,0.85,10.92,1.54,16.42,2.01c3.12,0.25,6.25,0.44,9.37,0.58l4.7,0.13l2.33,0.06c0.7,0.01,1.44,0.09,2.18,0.16
		c5.97,0.74,12,2.24,17.82,4.04c2.91,0.92,5.78,1.95,8.55,3.13c2.75,1.2,5.45,2.53,7.74,4.17c0.57,0.41,1.09,0.83,1.59,1.27
		l1.76,1.58l3.55,3.09c2.38,2.04,4.79,4.05,7.21,6.03c0.24,0.2,0.48,0.38,0.72,0.58l-0.97-0.28l6.78,4.95
		c2.72,2.15,5.45,4.28,8.2,6.39l0.19-0.27l1.08,0.79c3.85,2.81,7.93,5.79,12.31,8.9c-2.56,2.62-8.41,9.46-4.97,13.95
		c2.88,3.76,15.65,9.44,23.15,11.38C244.92,318.1,243.89,318.87,243.36,318.95 M217.5,276.14c-0.01,0-0.01-0.01-0.02-0.01l0.04,0.02
		L217.5,276.14z M490.22,294.86H244.44c-4.48-3.03-8.64-5.94-12.55-8.73h258.33V294.86z M385.86,94.87H268.34V68.89h117.51V94.87z
		 M30.09,253.32c-0.64-4.05-0.54-8.16,0.19-12.26c0.38-2.05,0.95-4.1,1.92-6.13c0.49-1.01,1.09-2.01,1.91-2.96
		c0.42-0.47,0.9-0.92,1.44-1.33c0.29-0.19,0.58-0.4,0.88-0.55l0.88-0.4c2.4-0.97,4.74-0.99,6.89-0.79c2.16,0.23,4.21,0.7,6.17,1.33
		c1.96,0.63,3.85,1.37,5.69,2.18c1.85,0.82,3.62,1.7,5.52,2.44c-2.06,0.25-4.12-0.09-6.12-0.3l-5.88-0.85
		c-1.93-0.27-3.83-0.48-5.65-0.51c-1.81-0.04-3.57,0.12-4.87,0.67l-0.49,0.2c-0.15,0.07-0.26,0.16-0.39,0.23l-0.39,0.31l-0.38,0.37
		c-0.52,0.53-0.99,1.23-1.44,1.97c-0.89,1.51-1.62,3.26-2.28,5.05C32.37,245.6,31.31,249.42,30.09,253.32 M57.95,264.82
		c2.47,0.34,4.9,0.69,7.41,0.95c-2.42,0.75-4.96,1-7.44,1.28l-7.39,0.6c-2.41,0.21-4.86,0.41-6.91,0.98
		c-0.54,0.13-0.94,0.31-1.38,0.47c-0.15,0.1-0.29,0.19-0.45,0.27c-0.11,0.1-0.12,0.19-0.22,0.26c-0.59,0.77-1.24,1.78-1.84,2.8
		c-2.47,4.12-4.85,8.48-7.38,12.71c-2.54,4.25-5.13,8.48-8.1,12.56c1.27-4.88,3.02-9.55,4.93-14.15c1.97-4.59,4.06-9.08,6.68-13.46
		c0.67-1.1,1.36-2.18,2.31-3.35c0.36-0.36,0.74-0.75,1.13-1.02c0.38-0.22,0.78-0.43,1.17-0.63c0.73-0.26,1.48-0.53,2.16-0.63
		c2.78-0.54,5.32-0.48,7.86-0.36C53,264.21,55.48,264.53,57.95,264.82 M142.66,160.05l0.01,0.05c0,0-0.01,0.01-0.01,0.01
		c-0.07,0.02-0.14,0.05-0.2,0.08C142.47,160.15,142.58,160.06,142.66,160.05 M151.15,221.44l0.01,0.05c0,0-0.01,0.01-0.01,0.01
		c-0.07,0.02-0.14,0.05-0.2,0.08C150.95,221.53,151.06,221.44,151.15,221.44 M289.19,191.09c0,20.9,17,37.9,37.9,37.9
		c20.9,0,37.9-17,37.9-37.9c0-20.9-17-37.9-37.9-37.9C306.2,153.19,289.19,170.19,289.19,191.09 M327.1,213.15
		c-12.17,0-22.06-9.9-22.06-22.06c0-12.17,9.9-22.06,22.06-22.06c12.17,0,22.06,9.9,22.06,22.06
		C349.16,203.26,339.26,213.15,327.1,213.15 M260.91,191.09c0,36.5,29.69,66.19,66.19,66.19c36.5,0,66.19-29.69,66.19-66.19
		c0-36.5-29.69-66.19-66.19-66.19C290.6,124.9,260.91,154.59,260.91,191.09 M366.13,191.09c0,21.52-17.51,39.04-39.04,39.04
		c-21.52,0-39.04-17.51-39.04-39.04s17.51-39.04,39.04-39.04C348.62,152.06,366.13,169.57,366.13,191.09 M242.24,191.09
		c0,46.79,38.07,84.86,84.86,84.86c46.79,0,84.86-38.07,84.86-84.86c0-46.79-38.07-84.86-84.86-84.86
		C280.31,106.23,242.24,144.3,242.24,191.09 M397.81,191.09c0,38.99-31.72,70.72-70.72,70.72c-38.99,0-70.72-31.72-70.72-70.72
		c0-38.99,31.72-70.72,70.72-70.72C366.09,120.37,397.81,152.1,397.81,191.09"/>
</g>
</svg>
